<svg width="192" height="192" viewBox="0 0 192 192" fill="none" xmlns="http://www.w3.org/2000/svg">
  <!-- Background circle -->
  <circle cx="96" cy="96" r="96" fill="#4F46E5"/>

  <!-- Brain icon (representing Personal AI) -->
  <g transform="translate(48, 48)">
    <!-- Left hemisphere -->
    <path d="M 48 24 Q 24 24 24 48 Q 24 72 48 72 Q 48 60 48 48 Z" fill="white" opacity="0.9"/>

    <!-- Right hemisphere -->
    <path d="M 48 24 Q 72 24 72 48 Q 72 72 48 72 Q 48 60 48 48 Z" fill="white" opacity="0.9"/>

    <!-- Neural connections -->
    <circle cx="36" cy="44" r="3" fill="white"/>
    <circle cx="60" cy="44" r="3" fill="white"/>
    <circle cx="48" cy="56" r="3" fill="white"/>
    <circle cx="42" cy="64" r="2" fill="white" opacity="0.7"/>
    <circle cx="54" cy="64" r="2" fill="white" opacity="0.7"/>

    <!-- Connecting lines -->
    <line x1="36" y1="44" x2="48" y2="56" stroke="white" stroke-width="1.5" opacity="0.6"/>
    <line x1="60" y1="44" x2="48" y2="56" stroke="white" stroke-width="1.5" opacity="0.6"/>
  </g>

  <!-- Notification badge (optional) -->
  <circle cx="144" cy="48" r="24" fill="#EF4444"/>
  <text x="144" y="56" font-family="Arial" font-size="24" font-weight="bold" fill="white" text-anchor="middle">!</text>
</svg>
